<?xml version="1.0" encoding="utf-8"?>
<svg viewBox="-5.8281 -11.2289 62.5384 79.291" xmlns="http://www.w3.org/2000/svg">
  <defs/>
  <g transform="matrix(0.9999999999999999, 0, 0, 0.9999999999999999, -132.23696899414065, -52.3054313659668)">
    <ellipse style="opacity: 0.86; stroke: rgb(0, 0, 0); stroke-width: 0px; fill: rgb(4, 217, 255);" cx="157.934" cy="77.475" rx="20.996" ry="20.996"/>
    <path d="M 153.9 76.7 L 158.97 76.15 L 159.07 76.15 Q 160.38 76.15 161.23 75.29 Q 173.93 62.24 178 59.83 Q 178.4 59.53 178.75 59.53 Q 179.1 59.53 179.3 59.73 Q 180.41 60.54 180.41 60.76 Q 180.41 60.99 180.26 61.14 Q 167.16 73.99 167.16 74.99 Q 167.16 75.24 167.56 75.24 Q 170.57 75.29 170.87 75.6 Q 171.17 75.9 171.77 76 Q 172.58 76 174.23 76.57 Q 175.89 77.15 175.89 78.11 Q 175.89 78.36 175.66 78.43 Q 175.44 78.51 173.68 78.76 Q 171.92 79.01 169.16 79.36 Q 166.4 79.71 164.77 79.91 Q 163.14 80.11 162.49 80.24 Q 161.83 80.36 161.48 80.97 Q 154.15 90.51 151.34 94.97 Q 151.24 95.53 150.74 95.53 Q 150.24 95.53 149.71 94.57 Q 149.18 93.62 149.18 92.46 Q 149.18 89.55 155.16 81.97 Q 155.51 81.67 155.51 81.47 Q 155.51 81.37 155.31 81.37 L 155.06 81.37 L 148.53 82.47 Q 147.83 82.47 147.38 83.08 Q 140.7 92.21 139.75 93.92 Q 139.6 94.52 139.07 94.52 Q 138.54 94.52 137.79 93.74 Q 137.04 92.97 137.04 91.96 Q 137.04 90.96 138.37 88.27 Q 139.7 85.59 141.15 83.83 Q 141.4 83.48 141.4 83.28 Q 141.4 83.08 141.05 83.08 L 138.69 82.98 Q 137.84 82.93 136.26 81.44 Q 134.68 79.96 134.68 78.81 Q 134.68 78.36 135.18 78.36 Q 138.79 78.76 140.07 78.76 Q 141.35 78.76 145.97 77.96 Q 146.42 77.8 147.18 76.95 Q 162.34 61.19 164.19 61.19 Q 164.49 61.19 164.97 61.69 Q 165.45 62.19 165.45 62.47 Q 165.45 62.74 165.25 62.95 Q 154.96 74.19 154.15 75.12 Q 153.35 76.05 153.35 76.37 Q 153.35 76.7 153.9 76.7 Z" transform="matrix(0.970296, -0.241922, 0.241922, 0.970296, -11.32178, 34.585648)" style="fill: rgb(250, 103, 193); stroke: rgb(64, 167, 200);"/>
  </g>
</svg>